<svg width="36" height="40" viewBox="0 0 36 40" fill="none" xmlns="http://www.w3.org/2000/svg">
<path d="M10.7341 6.76084L11.1675 7.662L11.1675 7.662L10.7341 6.76084ZM3.05625 9.6693C2.87361 10.1905 3.14806 10.7611 3.66927 10.9437L12.1629 13.9201C12.6841 14.1028 13.2547 13.8283 13.4373 13.3071C13.62 12.7859 13.3455 12.2153 12.8243 12.0327L5.27443 9.38699L7.92011 1.83713C8.10275 1.31592 7.82829 0.745332 7.30708 0.562686C6.78588 0.38004 6.21529 0.654499 6.03264 1.17571L3.05625 9.6693ZM30.5125 33.12L29.7539 32.4685L30.5125 33.12ZM10.3006 5.85967L3.56651 9.09884L4.43346 10.9012L11.1675 7.662L10.3006 5.85967ZM31.2712 33.7715C43.7738 19.2126 27.7409 -2.52932 10.3006 5.85967L11.1675 7.662C26.5097 0.28222 40.9513 19.4295 29.7539 32.4685L31.2712 33.7715ZM0.511788 25.1531C2.80842 39.9778 21.5237 45.1221 31.2712 33.7715L29.7539 32.4685C21.0929 42.5539 4.5173 37.9447 2.48821 24.8469L0.511788 25.1531Z" fill="#6FB95C"/>
</svg>
