<svg width="806" height="587" viewBox="0 0 806 587" fill="none" xmlns="http://www.w3.org/2000/svg">
<rect x="227" y="178" width="476" height="318" fill="url(#paint0_linear_25_121)"/>
<rect width="806" height="496" fill="url(#paint1_linear_25_121)"/>
<rect x="652.718" y="396" width="193" height="20" rx="2" transform="rotate(43.3068 652.718 396)" fill="#041A00"/>
<rect x="24" y="514.901" width="193" height="20" rx="2" transform="rotate(-43.9306 24 514.901)" fill="#041A00"/>
<rect x="497" y="481.146" width="99.0626" height="20" rx="2" transform="rotate(-54.9986 497 481.146)" fill="#041A00"/>
<rect x="401.347" y="393" width="99.0626" height="20" rx="2" transform="rotate(31.1551 401.347 393)" fill="#041A00"/>
<line x1="246.288" y1="334.802" x2="253.751" y2="331.919" stroke="#6FB95C"/>
<line x1="257.089" y1="331.687" x2="264.757" y2="333.969" stroke="#6FB95C"/>
<line x1="253.194" y1="331.819" x2="255.35" y2="335.188" stroke="#6FB95C"/>
<line x1="256.208" y1="335.102" x2="257.671" y2="331.379" stroke="#6FB95C"/>
<line x1="171.863" y1="341.408" x2="177.838" y2="336.087" stroke="#6FB95C"/>
<line x1="180.882" y1="334.697" x2="188.862" y2="334.14" stroke="#6FB95C"/>
<line x1="177.281" y1="336.189" x2="180.483" y2="338.586" stroke="#6FB95C"/>
<line x1="181.256" y1="338.204" x2="181.319" y2="334.205" stroke="#6FB95C"/>
<line x1="127.695" y1="370.471" x2="134.031" y2="365.588" stroke="#6FB95C"/>
<line x1="137.167" y1="364.417" x2="145.167" y2="364.428" stroke="#6FB95C"/>
<line x1="133.469" y1="365.649" x2="136.493" y2="368.268" stroke="#6FB95C"/>
<line x1="137.291" y1="367.942" x2="137.637" y2="363.957" stroke="#6FB95C"/>
<line x1="280.991" y1="354.32" x2="288.99" y2="354.177" stroke="#6FB95C"/>
<line x1="292.205" y1="355.106" x2="298.621" y2="359.885" stroke="#6FB95C"/>
<line x1="288.502" y1="353.892" x2="289.368" y2="357.797" stroke="#6FB95C"/>
<line x1="290.203" y1="358.011" x2="292.857" y2="355.018" stroke="#6FB95C"/>
<line x1="425.585" y1="381.276" x2="433.36" y2="379.395" stroke="#6FB95C"/>
<line x1="436.701" y1="379.602" x2="444.003" y2="382.868" stroke="#6FB95C"/>
<line x1="432.822" y1="379.222" x2="434.517" y2="382.845" stroke="#6FB95C"/>
<line x1="435.379" y1="382.872" x2="437.318" y2="379.373" stroke="#6FB95C"/>
<line x1="473.062" y1="404.755" x2="480.275" y2="401.294" stroke="#6FB95C"/>
<line x1="483.585" y1="400.8" x2="491.408" y2="402.472" stroke="#6FB95C"/>
<line x1="479.712" y1="401.238" x2="482.126" y2="404.427" stroke="#6FB95C"/>
<line x1="482.975" y1="404.274" x2="484.141" y2="400.448" stroke="#6FB95C"/>
<line x1="524.846" y1="383.163" x2="532.845" y2="383.009" stroke="#6FB95C"/>
<line x1="536.061" y1="383.933" x2="542.484" y2="388.702" stroke="#6FB95C"/>
<line x1="532.356" y1="382.724" x2="533.228" y2="386.628" stroke="#6FB95C"/>
<line x1="534.064" y1="386.84" x2="536.713" y2="383.843" stroke="#6FB95C"/>
<line x1="658.99" y1="373.33" x2="666.989" y2="373.176" stroke="#6FB95C"/>
<line x1="670.205" y1="374.1" x2="676.629" y2="378.869" stroke="#6FB95C"/>
<line x1="666.5" y1="372.891" x2="667.372" y2="376.795" stroke="#6FB95C"/>
<line x1="668.208" y1="377.007" x2="670.857" y2="374.011" stroke="#6FB95C"/>
<line x1="617.55" y1="363.29" x2="625.067" y2="360.554" stroke="#6FB95C"/>
<line x1="628.41" y1="360.388" x2="636.031" y2="362.82" stroke="#6FB95C"/>
<line x1="624.513" y1="360.443" x2="626.602" y2="363.854" stroke="#6FB95C"/>
<line x1="627.461" y1="363.785" x2="628.998" y2="360.092" stroke="#6FB95C"/>
<ellipse cx="217.5" cy="438.5" rx="80.5" ry="77.5" fill="#041A00"/>
<ellipse cx="144.5" cy="502.5" rx="72.5" ry="70.5" fill="#041A00"/>
<ellipse cx="287.5" cy="476" rx="72.5" ry="67" fill="#041A00"/>
<ellipse cx="359.5" cy="446" rx="72.5" ry="67" fill="#041A00"/>
<ellipse cx="446.5" cy="499" rx="72.5" ry="67" fill="#041A00"/>
<ellipse cx="554.5" cy="520" rx="72.5" ry="67" fill="#041A00"/>
<ellipse cx="606.5" cy="446" rx="72.5" ry="67" fill="#041A00"/>
<ellipse cx="665.5" cy="513" rx="72.5" ry="67" fill="#041A00"/>
<rect y="587" width="94" height="806" transform="rotate(-90 0 587)" fill="#031600"/>
<defs>
<linearGradient id="paint0_linear_25_121" x1="465" y1="178" x2="465" y2="496" gradientUnits="userSpaceOnUse">
<stop stop-color="#0C3D04"/>
<stop offset="1" stop-color="#041E00"/>
</linearGradient>
<linearGradient id="paint1_linear_25_121" x1="403" y1="0" x2="403" y2="496" gradientUnits="userSpaceOnUse">
<stop stop-color="#0C3D04"/>
<stop offset="1" stop-color="#041E00"/>
</linearGradient>
</defs>
</svg>
