<svg width="9" height="9" viewBox="0 0 9 9" fill="none" xmlns="http://www.w3.org/2000/svg">
<circle cx="3" cy="3" r="2.75" stroke="#6FB95C" stroke-width="0.5"/>
<rect x="7.7038" y="8.62115" width="4.8" height="1" rx="0.5" transform="rotate(-133.876 7.7038 8.62115)" fill="#6FB95C"/>
<mask id="path-3-inside-1_216_6" fill="white">
<path d="M1.37406 1.83544C2.01724 0.937443 3.26661 0.73087 4.1646 1.37405V1.37405C5.0626 2.01722 5.26917 3.26659 4.626 4.16459V4.16459C3.98282 5.06258 2.73345 5.26916 1.83546 4.62598V4.62598C0.937459 3.9828 0.730886 2.73344 1.37406 1.83544V1.83544Z"/>
</mask>
<path d="M1.60698 1.51025C2.25015 0.61225 3.49952 0.405676 4.39752 1.04885C5.29551 1.69203 5.50209 2.9414 4.85891 3.83939L4.626 4.16459C5.14054 3.44619 4.82968 2.34242 3.93169 1.69924C3.03369 1.05606 1.8886 1.11704 1.37406 1.83544L1.60698 1.51025ZM3.46142 5.79055L0.209489 3.46141L3.46142 5.79055ZM0.209489 3.46141L2.53864 0.209473L0.209489 3.46141ZM5.79057 2.53862L3.46142 5.79055L5.79057 2.53862Z" fill="#6FB95C" mask="url(#path-3-inside-1_216_6)"/>
</svg>
